<svg width="64" height="64" viewBox="0 0 64 64" fill="none" xmlns="http://www.w3.org/2000/svg">
<path d="M14.4 21.6C14.4 19.6904 15.1586 17.859 16.5088 16.5088C17.8591 15.1585 19.6904 14.4 21.6 14.4C23.5096 14.4 25.3409 15.1585 26.6912 16.5088C28.0414 17.859 28.8 19.6904 28.8 21.6C28.8 23.5095 28.0414 25.3409 26.6912 26.6911C25.3409 28.0414 23.5096 28.8 21.6 28.8C19.6904 28.8 17.8591 28.0414 16.5088 26.6911C15.1586 25.3409 14.4 23.5095 14.4 21.6V21.6ZM21.6 11.2C18.8417 11.2 16.1965 12.2957 14.2461 14.246C12.2957 16.1964 11.2 18.8417 11.2 21.6C11.2 24.3582 12.2957 27.0035 14.2461 28.9539C16.1965 30.9042 18.8417 32 21.6 32C24.3583 32 27.0035 30.9042 28.9539 28.9539C30.9043 27.0035 32 24.3582 32 21.6C32 18.8417 30.9043 16.1964 28.9539 14.246C27.0035 12.2957 24.3583 11.2 21.6 11.2V11.2ZM39.7984 48.464C41.52 49.168 43.6864 49.6 46.4 49.6C52.4192 49.6 55.7472 47.4624 57.5008 45.0112C58.4157 43.7248 58.9893 42.2275 59.168 40.6592C59.184 40.5135 59.1947 40.3672 59.2 40.2208V40C59.2 39.3696 59.0758 38.7454 58.8346 38.1631C58.5934 37.5807 58.2398 37.0516 57.7941 36.6058C57.3484 36.1601 56.8192 35.8066 56.2369 35.5653C55.6545 35.3241 55.0303 35.2 54.4 35.2H39.584C40.352 36.128 40.928 37.2128 41.264 38.4H54.4C54.8243 38.4 55.2313 38.5685 55.5314 38.8686C55.8314 39.1686 56 39.5756 56 40V40.1728L55.984 40.3328C55.8614 41.3474 55.4875 42.3153 54.896 43.1488C53.8496 44.6176 51.5776 46.4 46.4 46.4C44.0576 46.4 42.3104 46.0352 41.0016 45.5008C40.7392 46.3968 40.3584 47.408 39.7984 48.464V48.464ZM4.8 41.6C4.8 39.9026 5.47428 38.2747 6.67452 37.0745C7.87475 35.8742 9.50261 35.2 11.2 35.2H32C33.6974 35.2 35.3252 35.8742 36.5255 37.0745C37.7257 38.2747 38.4 39.9026 38.4 41.6V41.8688C38.4 41.9008 38.4 41.9424 38.3936 41.9968C38.3547 42.6303 38.2637 43.2597 38.1216 43.8784C37.8496 45.056 37.3088 46.6304 36.2176 48.2112C33.9744 51.456 29.6416 54.4 21.6 54.4C13.5584 54.4 9.2256 51.456 6.9824 48.2112C5.80104 46.4904 5.06442 44.5037 4.8384 42.4288C4.81928 42.2426 4.80647 42.0558 4.8 41.8688V41.6V41.6ZM8 41.792V41.8496L8.0224 42.1152C8.19579 43.6491 8.74299 45.1171 9.616 46.3904C11.1744 48.6432 14.4416 51.2 21.6 51.2C28.7584 51.2 32.0256 48.6432 33.584 46.3904C34.4572 45.1173 35.0045 43.6492 35.1776 42.1152C35.1881 42.027 35.1945 41.9383 35.1968 41.8496L35.2 41.7952V41.6C35.2 40.7513 34.8629 39.9373 34.2627 39.3372C33.6626 38.7371 32.8487 38.4 32 38.4H11.2C10.3513 38.4 9.53737 38.7371 8.93726 39.3372C8.33714 39.9373 8 40.7513 8 41.6V41.792ZM41.6 24C41.6 22.7269 42.1057 21.506 43.0059 20.6058C43.9061 19.7057 45.127 19.2 46.4 19.2C47.673 19.2 48.8939 19.7057 49.7941 20.6058C50.6943 21.506 51.2 22.7269 51.2 24C51.2 25.273 50.6943 26.4939 49.7941 27.3941C48.8939 28.2942 47.673 28.8 46.4 28.8C45.127 28.8 43.9061 28.2942 43.0059 27.3941C42.1057 26.4939 41.6 25.273 41.6 24V24ZM46.4 16C44.2783 16 42.2434 16.8428 40.7431 18.3431C39.2429 19.8434 38.4 21.8782 38.4 24C38.4 26.1217 39.2429 28.1565 40.7431 29.6568C42.2434 31.1571 44.2783 32 46.4 32C48.5217 32 50.5566 31.1571 52.0569 29.6568C53.5571 28.1565 54.4 26.1217 54.4 24C54.4 21.8782 53.5571 19.8434 52.0569 18.3431C50.5566 16.8428 48.5217 16 46.4 16V16Z" fill="#F4BA19"/>
</svg>
