<svg width="64" height="64" viewBox="0 0 64 64" fill="none" xmlns="http://www.w3.org/2000/svg">
<g clip-path="url(#clip0_34_17)">
<path d="M45.25 42.95V45.75H17.75V42.975C17.75 40.5013 19.1741 38.2643 21.3988 37.2962L21.3988 37.2962L21.4077 37.2923C24.1985 36.0519 27.6259 35.125 31.5 35.125C35.3722 35.125 38.8007 36.051 41.5963 37.269C43.8305 38.2639 45.25 40.5071 45.25 42.95ZM5.04614 39.5973L5.0489 39.5961C7.02277 38.7369 9.20338 38.25 11.5 38.25C11.8108 38.25 12.1176 38.2611 12.4228 38.2817C11.8291 39.7376 11.5 41.3196 11.5 42.975V45.75H2.75V43.075C2.75 41.5547 3.64809 40.2019 5.04614 39.5973ZM57.9511 39.5961L57.9539 39.5973C59.3519 40.2019 60.25 41.5547 60.25 43.075V45.75H51.5V42.975C51.5 41.3196 51.1709 39.7376 50.5772 38.2817C50.8824 38.2611 51.1892 38.25 51.5 38.25C53.7966 38.25 55.9772 38.7369 57.9511 39.5961ZM15.25 29.5C15.25 31.5596 13.5596 33.25 11.5 33.25C9.44036 33.25 7.75 31.5596 7.75 29.5C7.75 27.4404 9.44036 25.75 11.5 25.75C13.5596 25.75 15.25 27.4404 15.25 29.5ZM55.25 29.5C55.25 31.5596 53.5596 33.25 51.5 33.25C49.4404 33.25 47.75 31.5596 47.75 29.5C47.75 27.4404 49.4404 25.75 51.5 25.75C53.5596 25.75 55.25 27.4404 55.25 29.5ZM31.5 18.25C34.9596 18.25 37.75 21.0404 37.75 24.5C37.75 27.9596 34.9596 30.75 31.5 30.75C28.0404 30.75 25.25 27.9596 25.25 24.5C25.25 21.0404 28.0404 18.25 31.5 18.25Z" stroke="#F4BA19" stroke-width="2.5"/>
</g>
<defs>
<clipPath id="clip0_34_17">
<rect width="64" height="64" fill="white"/>
</clipPath>
</defs>
</svg>
