<svg width="64" height="64" viewBox="0 0 64 64" fill="none" xmlns="http://www.w3.org/2000/svg">
<g clip-path="url(#clip0_34_3)">
<path d="M31.9733 5.33325C17.2533 5.33325 5.33331 17.2799 5.33331 31.9999C5.33331 46.7199 17.2533 58.6666 31.9733 58.6666C46.72 58.6666 58.6666 46.7199 58.6666 31.9999C58.6666 17.2799 46.72 5.33325 31.9733 5.33325ZM32 53.3332C20.2133 53.3332 10.6666 43.7866 10.6666 31.9999C10.6666 20.2133 20.2133 10.6666 32 10.6666C43.7866 10.6666 53.3333 20.2133 53.3333 31.9999C53.3333 43.7866 43.7866 53.3332 32 53.3332Z" fill="#F4BA19"/>
<path d="M33.3333 18.6667H29.3333V34.6667L43.3333 43.0667L45.3333 39.7867L33.3333 32.6667V18.6667Z" fill="#F4BA19"/>
</g>
<defs>
<clipPath id="clip0_34_3">
<rect width="64" height="64" fill="white"/>
</clipPath>
</defs>
</svg>
