<svg width="64" height="64" viewBox="0 0 64 64" fill="none" xmlns="http://www.w3.org/2000/svg">
<path d="M28.6925 31.265C29.9262 34.4937 29.795 37.8537 26.0937 39.1925C18.4812 42.0012 16.775 34.625 16.67 34.2575L28.6925 31.265M15.4887 29.1387L26.8287 26.33C26.33 23.5737 27.0912 20.8175 27.0912 17.5625C27.0912 13.1525 23.6 4.51624 18.035 5.90749C11.6825 7.48249 10.7637 14.5437 11 17.9562C11.315 21.3687 15.305 28.6662 15.4887 29.1387M47.3562 52.6062C47.2775 53 45.545 60.35 37.9325 57.5675C34.2575 56.2025 34.1 52.8425 35.3337 49.6137L47.3562 52.6062ZM53 36.3312C53.2625 32.9187 52.37 25.8312 45.9912 24.2562C40.4525 22.8125 36.9612 31.5012 36.9612 35.9375C36.9612 39.1662 37.6962 41.9225 37.25 44.6787L48.5375 47.4875C48.7475 47.015 52.7112 39.7175 53 36.3312V36.3312Z" stroke="#F4BA19" stroke-width="3"/>
</svg>
