<svg width="60" height="59" viewBox="0 0 60 59" fill="none" xmlns="http://www.w3.org/2000/svg">
<path d="M0 53.875C0.0782282 52.7314 0.155988 51.5878 0.234997 50.4444C0.442201 47.4452 0.781814 44.466 1.50648 41.5395C2.98829 35.5559 6.85535 32.015 12.7639 30.6278C13.8316 30.3772 14.9711 30.407 16.0794 30.3725C16.373 30.3633 16.7088 30.5479 16.9635 30.73C17.3233 30.9873 17.6257 31.3249 18.0284 31.6984C18.3074 30.7176 18.5179 29.8204 18.247 28.8892C18.1938 28.7063 18.0115 28.5403 17.8523 28.4118C15.823 26.7747 14.4757 24.7092 13.9162 22.1525C13.8244 21.7328 13.6545 21.4537 13.256 21.2169C10.5875 19.6306 9.90313 16.2502 11.6894 13.7046C11.7945 13.5549 11.8741 13.3086 11.8295 13.1442C10.4768 8.16197 13.2312 3.88596 17.1068 1.92151C19.6717 0.621451 22.4538 0.139903 25.3044 0.0217017C26.6722 -0.0349787 28.0326 -0.0110883 29.3461 0.473271C30.4589 0.883774 31.3167 1.54114 31.7782 2.676C32.1974 3.70748 32.8585 4.50819 33.831 5.1373C34.6639 5.67615 35.4098 6.41268 36.0403 7.187C37.0694 8.45099 36.9743 9.94185 36.5694 11.4235C36.4109 12.0039 36.1939 12.5682 36.004 13.1383C38.2906 15.5268 37.6915 19.6354 34.8259 21.3426C34.6225 21.4637 34.4332 21.7176 34.3691 21.9467C33.6338 24.5744 32.3026 26.805 30.1711 28.5531C29.9107 28.7668 29.7528 29.2831 29.7829 29.6391C29.8609 30.5598 30.0704 31.4693 30.2275 32.3834C30.2949 32.4002 30.3624 32.4171 30.4298 32.434C31.0179 31.9117 31.6211 31.4051 32.1887 30.8616C32.5657 30.5004 32.9778 30.3477 33.5001 30.3421C39.5554 30.2757 45.1311 33.93 47.1431 39.3179C48.0913 41.8573 48.5829 44.5101 48.7958 47.1929C49.0611 50.5353 49.1696 53.8905 49.32 57.2412C49.3665 58.2771 49.0488 58.5623 48.0164 58.5623C32.4628 58.5628 16.9095 58.5598 1.35596 58.5739C0.77994 58.5744 0.337896 58.4321 0.000156058 57.9731C-8.578e-08 56.6073 0 55.2412 0 53.875ZM40.9544 56.6107C43.1509 56.6107 45.2493 56.6107 47.3726 56.6107C47.3871 56.4858 47.4094 56.3927 47.4069 56.3003C47.3735 55.0716 47.3579 53.8419 47.2962 52.6145C47.1199 49.1061 46.8133 45.6139 46.0088 42.1806C44.8591 37.2735 41.842 34.1544 37.0404 32.71C36.5927 32.5754 36.3337 32.634 36.0693 33.0834C34.3002 36.0909 32.487 39.0724 30.7092 42.0748C30.5416 42.3579 30.4431 42.7265 30.4414 43.0561C30.4227 46.6268 30.4309 50.1975 30.4288 53.7682C30.4281 54.7512 30.1172 55.0592 29.1323 55.0599C26.0299 55.0616 22.9274 55.061 19.825 55.0603C18.6844 55.0602 18.4205 54.7943 18.42 53.641C18.4189 50.1484 18.4305 46.6556 18.4047 43.1629C18.4017 42.7605 18.274 42.3126 18.0692 41.9653C16.3369 39.0265 14.5737 36.106 12.8185 33.1806C12.7122 33.0036 12.5946 32.8332 12.4906 32.6727C10.8228 33.1024 9.36163 33.8086 8.01879 34.7789C5.21209 36.8069 3.82428 39.6622 3.14787 42.9634C2.40525 46.5884 2.12044 50.258 1.99459 53.945C1.96476 54.8174 1.99021 55.6918 1.99021 56.5913C4.3786 56.5913 6.74699 56.5913 9.16754 56.5913C9.16754 56.3178 9.16754 56.0864 9.16754 55.8551C9.16754 52.8698 9.16629 49.8843 9.17004 46.899C9.17035 46.6667 9.17691 46.4281 9.22843 46.2032C9.33383 45.7435 9.67048 45.507 10.1169 45.4932C10.566 45.4793 10.9121 45.7075 11.0445 46.1537C11.1093 46.3722 11.1131 46.6143 11.1134 46.8457C11.1176 49.8896 11.1156 52.9335 11.1175 55.9775C11.1176 56.1824 11.1359 56.3873 11.1459 56.5949C20.4614 56.5949 29.7152 56.5949 39.0036 56.5949C39.0036 56.3306 39.0036 56.1174 39.0036 55.9041C39.0036 52.8993 39.0033 49.8943 39.0043 46.8895C39.0043 46.6946 38.9884 46.4943 39.027 46.3061C39.1294 45.8066 39.452 45.5013 39.9603 45.4943C40.4646 45.4873 40.8095 45.764 40.9132 46.2735C40.9554 46.481 40.953 46.6996 40.9532 46.9132C40.9555 49.8985 40.9547 52.884 40.9547 55.8693C40.9544 56.1012 40.9544 56.3329 40.9544 56.6107ZM29.7046 8.45958C28.2808 9.75854 27.4583 10.0697 25.5925 10.0693C24.1685 10.069 22.7415 10.0296 21.3213 10.1072C19.8458 10.1879 18.3519 10.2693 16.9121 10.5703C15.4534 10.8753 14.396 11.7547 14.1901 13.3962C14.146 13.7466 13.9321 14.1429 13.6734 14.3884C11.9658 16.0082 12.3994 18.8204 14.5787 19.7254C15.3049 20.0269 15.5837 20.4703 15.6876 21.1889C15.9162 22.7661 16.5774 24.165 17.562 25.4147C20.6849 29.3779 26.0826 29.8179 29.6537 26.4046C31.2777 24.8524 32.1609 22.9078 32.6591 20.7612C32.7811 20.236 33.0311 19.9053 33.5763 19.7507C33.8777 19.6653 34.1814 19.4567 34.3968 19.2232C35.2631 18.2842 35.6727 17.1503 35.4521 15.8908C35.3742 15.4466 35.0439 14.8651 34.6699 14.6939C33.9921 14.3837 33.6667 13.8839 33.3713 13.2857C33.1902 12.9192 32.9979 12.5559 32.7806 12.2102C31.9182 10.8391 31.0294 9.48779 29.7046 8.45958ZM34.5714 11.2811C35.2358 9.57054 34.927 8.3904 33.5566 7.29552C33.3129 7.10081 33.0793 6.87846 32.8051 6.73965C31.4168 6.03669 30.6021 4.8489 30.0215 3.47124C29.7739 2.88367 29.3648 2.5072 28.7735 2.33482C28.29 2.19382 27.7969 2.0408 27.2993 2.00036C24.7607 1.79331 22.278 2.13699 19.8511 2.87914C17.317 3.65408 15.3206 5.11934 14.1162 7.53271C13.692 8.38275 13.4493 9.29105 13.4598 10.3958C15.0598 8.80497 16.968 8.36605 18.9987 8.29797C21.2404 8.22286 23.4828 8.15338 25.7254 8.12996C26.8014 8.11871 27.7231 7.88356 28.3808 6.95638C28.9643 6.13381 29.552 5.98797 30.3604 6.58803C31.1214 7.15296 31.8545 7.78675 32.4792 8.49627C33.2328 9.35194 33.8589 10.3196 34.5714 11.2811ZM14.6257 32.3854C14.6811 32.4967 14.7171 32.5826 14.7645 32.6616C16.4172 35.4208 18.0767 38.1762 19.7166 40.9427C19.9129 41.2737 20.162 41.3122 20.4925 41.3111C23.107 41.3034 25.7215 41.2967 28.3358 41.317C28.7646 41.3203 28.9958 41.1733 29.21 40.8114C30.7791 38.1615 32.3703 35.5247 33.9529 32.8829C34.0491 32.7224 34.1322 32.5539 34.2212 32.3891C34.1837 32.3295 34.1464 32.2697 34.1089 32.21C33.7827 32.3475 33.3922 32.4118 33.1402 32.6335C30.5476 34.9135 27.9776 37.2195 25.4006 39.5173C24.6263 40.2078 24.2528 40.2021 23.5033 39.4984C21.171 37.3082 18.8207 35.1367 16.5183 32.9155C15.9668 32.3837 15.4241 32.1556 14.6257 32.3854ZM20.3915 53.1029C23.109 53.1029 25.7686 53.1029 28.4353 53.1029C28.4353 49.7997 28.4353 46.5371 28.4353 43.2661C25.7326 43.2661 23.0734 43.2661 20.3915 43.2661C20.3915 46.5542 20.3915 49.8045 20.3915 53.1029ZM27.6873 29.9903C25.2852 30.9086 22.7978 30.8549 20.4155 29.9133C20.1751 30.8902 19.9754 31.82 19.7068 32.7295C19.6077 33.0654 19.6589 33.2498 19.9046 33.4767C21.1939 34.6667 22.4674 35.8737 23.7464 37.0746C23.9836 37.2972 24.2214 37.5191 24.4711 37.7525C25.9701 36.4155 27.4217 35.1206 28.781 33.9083C28.4039 32.5572 28.0518 31.2957 27.6873 29.9903Z" fill="#939393"/>
<path d="M59.952 16.6393C59.6474 17.1402 59.1996 17.2867 58.6229 17.2845C54.2734 17.2684 49.9237 17.2758 45.5741 17.2758C45.3451 17.2758 45.1162 17.2758 44.8399 17.2758C44.8399 17.5596 44.8399 17.7712 44.8399 17.9828C44.8399 21.7473 44.8404 25.5117 44.8384 29.2762C44.8382 29.4898 44.8512 29.7125 44.7984 29.9153C44.6769 30.3825 44.3462 30.66 43.8676 30.6569C43.3948 30.6537 43.0513 30.3992 42.9439 29.9149C42.8981 29.7084 42.8942 29.4897 42.8939 29.2765C42.883 21.1822 42.8738 13.0878 42.8672 4.99362C42.8666 4.15512 42.878 3.31663 42.8941 2.47829C42.9078 1.763 43.2786 1.31923 43.8515 1.30924C44.444 1.29909 44.9204 1.77705 44.8192 2.50249C44.6407 3.78132 45.1924 4.51956 46.1943 5.26968C50.5019 8.49437 54.7385 11.8138 58.9971 15.1038C59.3306 15.3614 59.6341 15.6581 59.9516 15.9367C59.952 16.1709 59.952 16.4051 59.952 16.6393ZM56.11 15.3158C52.3133 12.3889 48.6264 9.54632 44.8918 6.66717C44.8918 9.61736 44.8918 12.4684 44.8918 15.3158C48.6111 15.3158 52.2854 15.3158 56.11 15.3158Z" fill="#939393"/>
<path d="M24.4419 49.1611C23.8774 49.1605 23.3123 49.1769 22.7486 49.1561C22.1219 49.133 21.7081 48.7404 21.6975 48.2024C21.6867 47.6467 22.1231 47.2248 22.7735 47.2157C23.8827 47.2001 24.9924 47.1988 26.1015 47.2165C26.7191 47.2263 27.1411 47.634 27.1517 48.1691C27.1622 48.7037 26.7475 49.1077 26.1349 49.1589C26.0962 49.1622 26.0572 49.1617 26.0183 49.1619C25.4929 49.1617 24.9673 49.1617 24.4419 49.1611Z" fill="#939393"/>
<path d="M24.4399 46.2821C23.8562 46.2829 23.2722 46.2964 22.6892 46.2791C22.1082 46.2618 21.7086 45.8681 21.6994 45.3429C21.6903 44.8192 22.0865 44.3907 22.6611 44.3812C23.8473 44.3614 25.0345 44.3604 26.2205 44.3832C26.7639 44.3937 27.1433 44.8104 27.1515 45.3149C27.1599 45.8413 26.7642 46.2563 26.1902 46.2769C25.6077 46.2974 25.0235 46.2811 24.4399 46.2821Z" fill="#939393"/>
<path d="M24.4375 52.005C23.8733 52.0052 23.3089 52.0147 22.7449 52.0025C22.1298 51.9893 21.7079 51.597 21.6993 51.0554C21.6909 50.5143 22.0947 50.1007 22.7219 50.089C23.8693 50.0678 25.0177 50.0671 26.1649 50.0924C26.7629 50.1055 27.1457 50.5065 27.1521 51.0318C27.1586 51.5731 26.7366 51.986 26.1299 52.0016C25.5663 52.0164 25.0018 52.0049 24.4375 52.005Z" fill="#939393"/>
</svg>
