<svg width="64" height="64" viewBox="0 0 64 64" fill="none" xmlns="http://www.w3.org/2000/svg">
<path d="M27.8544 63.9524C27.481 63.7769 27.0813 63.6416 26.739 63.4184C25.6898 62.734 25.2078 61.4277 25.5289 60.2489C25.8655 59.0128 26.9872 58.0831 28.2654 58.0704C30.7423 58.0459 33.2199 58.0421 35.6967 58.0724C36.8323 58.0864 37.639 58.7002 38.2126 59.6656C38.3136 59.8356 38.5714 60.0359 38.742 60.0232C45.6387 59.5114 51.1877 56.6393 54.9136 50.6609C55.9651 48.9736 56.6408 47.1226 56.9951 45.139C56.3903 44.9942 55.9954 45.0147 55.7026 45.6953C55.2195 46.8183 53.9169 47.3723 52.6666 47.1492C51.2607 46.8984 50.3534 46.0139 50.1818 44.7217C50.1572 44.5365 50.1375 44.3488 50.1375 44.1623C50.1352 37.0429 50.1259 29.9235 50.1414 22.8041C50.146 20.6609 51.9447 19.3149 54.0015 19.8674C55.0328 20.1444 55.6578 20.8518 55.993 21.8474C56.3217 21.8474 56.6288 21.8474 56.939 21.8474C55.6153 12.9068 46.6875 2.57956 33.1886 1.91714C19.9244 1.26604 8.93509 10.7819 6.96798 21.8305C7.29745 21.8305 7.62074 21.8305 7.94204 21.8305C8.84964 19.9146 10.479 19.2428 12.203 20.08C13.1105 20.5207 13.654 21.2369 13.7744 22.2519C13.7941 22.417 13.8147 22.5836 13.8147 22.7493C13.8167 29.8895 13.8284 37.0297 13.8094 44.1699C13.8039 46.2621 12.0725 47.5743 10.0411 47.0953C9.15279 46.8859 8.48787 46.3716 8.15025 45.5261C7.99451 45.136 7.78181 45.0727 7.40987 45.0649C6.47629 45.0454 5.51223 45.1058 4.61679 44.895C2.19346 44.3238 0.687237 42.7613 0.11626 40.3215C0.0882779 40.2019 0.0393087 40.0871 0.000166471 39.97C0.000166471 38.3879 0.000166471 36.8057 0.000166471 35.2237C0.344118 34.8148 0.758859 34.5654 1.30119 34.7673C1.88949 34.9862 1.88083 35.5038 1.87666 36.0188C1.86767 37.0998 1.84585 38.182 1.88266 39.2618C1.93679 40.8512 2.70015 42.0196 4.10794 42.7563C5.2922 43.3759 6.56274 43.185 7.81912 43.1837C7.81912 36.6729 7.81912 30.2225 7.81912 23.7563C7.06392 23.7563 6.3557 23.7134 5.6543 23.7643C3.47633 23.9226 1.89765 25.627 1.87566 27.8101C1.86567 28.808 1.9163 29.8091 1.84585 30.8021C1.82419 31.1084 1.55253 31.5381 1.28703 31.6467C1.0122 31.7593 0.601957 31.5655 0.259338 31.4739C0.158068 31.4467 0.0856132 31.312 0 31.2265C0 29.8109 0 28.3953 0 26.9797C0.0306475 26.904 0.0736207 26.8311 0.090277 26.7526C0.626942 24.2225 2.17664 22.6758 4.65143 21.9934C4.83681 21.9423 5.04602 21.6558 5.08683 21.4479C7.15237 10.9105 15.8969 2.7736 26.2983 0.617781C27.5949 0.348949 28.917 0.20304 30.2273 0C31.3931 0 32.5588 0 33.7246 0C33.864 0.0334791 34.0019 0.0867789 34.1432 0.0976055C38.1185 0.400083 41.8637 1.50606 45.3322 3.45618C52.4654 7.46667 57.1223 13.3662 58.8416 21.4511C58.9244 21.84 59.1098 21.9756 59.4711 22.0714C61.6049 22.6375 63.0137 23.9877 63.7017 26.0852C63.7982 26.379 63.8693 26.6813 63.9521 26.9797C63.9521 31.3098 63.9521 35.6398 63.9521 39.9699C63.9351 40.0079 63.9109 40.0442 63.9024 40.0838C63.345 42.6689 61.8041 44.3028 59.2287 44.9638C59.0726 45.0037 58.8987 45.2551 58.8613 45.4348C57.4963 51.9779 53.666 56.5933 47.782 59.5861C45.0034 60.9994 42.0286 61.7143 38.922 61.9105C38.7027 61.9243 38.3654 62.0088 38.2966 62.1585C37.8512 63.1283 37.0537 63.6284 36.098 63.9519C33.3504 63.9524 30.6024 63.9524 27.8544 63.9524ZM56.1163 43.2345C57.0166 43.1945 57.893 43.2318 58.744 43.1023C60.6696 42.8088 62.0603 41.1826 62.0708 39.2362C62.0914 35.3871 62.0907 31.5376 62.0703 27.6885C62.0609 25.9178 60.8692 24.3303 59.1486 23.9367C58.1777 23.7147 57.1468 23.7548 56.1163 23.6749C56.1163 30.2579 56.1163 36.6974 56.1163 43.2345ZM9.74308 33.4824C9.74308 36.9339 9.74292 40.3853 9.74359 43.8368C9.74359 44.0445 9.73059 44.2554 9.75958 44.4596C9.83453 44.9876 10.2474 45.3384 10.8018 45.3404C11.3597 45.3424 11.7747 45.1135 11.8942 44.5297C11.9437 44.2883 11.942 44.034 11.9422 43.7855C11.9445 36.9035 11.9442 30.0213 11.9434 23.1392C11.9434 22.9523 11.9482 22.7636 11.9259 22.5789C11.8456 21.9165 11.3836 21.549 10.7195 21.6073C10.0656 21.6648 9.74492 22.0731 9.74425 22.8786C9.74142 26.4132 9.74308 29.9478 9.74308 33.4824ZM54.2097 33.4753C54.2097 32.0805 54.2097 30.6857 54.2097 29.2909C54.2097 27.1259 54.2147 24.9608 54.2067 22.7958C54.2037 21.9788 53.7113 21.5244 52.9598 21.6097C52.2915 21.6855 52.0097 22.1017 52.0094 23.04C52.0079 29.9931 52.0084 36.9461 52.0099 43.8993C52.0099 44.086 52.0134 44.275 52.0407 44.4592C52.1233 45.0159 52.4801 45.2906 53.0164 45.3379C53.7581 45.4033 54.2067 44.9366 54.2077 44.0923C54.212 40.5532 54.2097 37.0142 54.2097 33.4753ZM31.9707 62.0788C33.0945 62.0788 34.2183 62.0832 35.3421 62.0772C36.1608 62.0729 36.5893 61.7068 36.6015 61.0206C36.6138 60.3245 36.1927 59.9373 35.3838 59.9351C33.1153 59.9289 30.8469 59.9293 28.5785 59.9349C27.7647 59.9369 27.3446 60.3158 27.3511 61.0101C27.3576 61.6998 27.785 62.0724 28.5993 62.0771C29.7231 62.0836 30.8469 62.0788 31.9707 62.0788Z" fill="#939393"/>
<path d="M41.8846 47.4962C41.8846 45.8567 41.9001 44.3187 41.8764 42.781C41.868 42.2256 42.0385 41.7939 42.3968 41.369C46.2919 36.7504 46.6345 30.2748 43.2819 25.2466C43.0952 24.9666 42.8707 24.583 42.9291 24.3032C42.9921 24.002 43.3212 23.6674 43.619 23.5258C44.0456 23.3231 44.4035 23.5911 44.668 23.9695C45.9621 25.8214 46.84 27.8513 47.2065 30.0806C47.9566 34.6429 46.8745 38.7388 44.0204 42.3771C43.8587 42.5833 43.7728 42.9026 43.7694 43.1706C43.7478 44.9811 43.7626 46.7921 43.7563 48.6028C43.7523 49.7403 43.1843 50.1124 42.1498 49.6605C40.5693 48.9703 39.0001 48.2527 37.4059 47.596C37.0588 47.4529 36.5944 47.4027 36.2378 47.5025C27.9228 49.8261 19.3643 45.0409 17.0411 36.7461C14.6235 28.1138 20.5196 18.9765 29.3781 17.6133C33.4159 16.9919 37.1516 17.7563 40.5799 19.9907C40.9875 20.2564 41.3138 20.5598 41.1584 21.108C40.9595 21.8091 40.2883 22.0389 39.6298 21.6027C38.1208 20.603 36.4853 19.9219 34.7161 19.5416C26.9414 17.8702 19.2422 23.4729 18.4601 31.3781C17.6144 39.9252 24.9012 47.1066 33.4334 46.1081C34.3973 45.9953 35.3365 45.6833 36.2976 45.5276C36.7007 45.4623 37.1727 45.4593 37.5411 45.6075C38.9644 46.1802 40.3586 46.8251 41.8846 47.4962Z" fill="#939393"/>
<path d="M38.7054 34.3612C39.2333 34.4674 39.6853 34.6633 39.6855 35.2506C39.6857 35.8414 39.2321 36.0318 38.7014 36.1456C38.7014 36.507 38.7191 36.8595 38.6973 37.2094C38.6656 37.7148 38.385 38.0452 37.8753 38.051C37.3669 38.057 37.0703 37.7469 37.0431 37.2301C37.0246 36.8791 37.0396 36.5265 37.0396 36.0888C36.7686 36.0888 36.5481 36.0888 36.3274 36.0888C35.0389 36.0888 33.7489 36.1202 32.4625 36.0661C32.1454 36.0528 31.7126 35.8324 31.5681 35.5751C31.4433 35.3531 31.5482 34.8614 31.7305 34.6292C33.5 32.3733 35.3067 30.1461 37.1046 27.9124C37.3706 27.5819 37.6941 27.3755 38.1355 27.5409C38.566 27.7023 38.7063 28.0505 38.7059 28.4825C38.7044 30.2076 38.7056 31.9327 38.7058 33.6578C38.7056 33.8835 38.7054 34.1093 38.7054 34.3612ZM34.0582 34.3757C35.1198 34.3757 36.0414 34.3757 36.9752 34.3757C36.9752 33.1902 36.9752 32.0498 36.9752 30.7536C35.96 32.0143 35.0429 33.1531 34.0582 34.3757Z" fill="#939393"/>
<path d="M27.1937 36.3711C28.2636 36.3711 29.1782 36.3644 30.0926 36.3732C30.7923 36.3801 31.1714 36.6899 31.1711 37.2279C31.1708 37.7649 30.7948 38.0688 30.0864 38.0718C28.4631 38.0787 26.8398 38.0725 25.2166 38.0748C24.7746 38.0755 24.3832 37.9882 24.1899 37.53C23.9902 37.0563 24.2436 36.739 24.5692 36.4445C25.9585 35.1885 27.3421 33.9263 28.7359 32.6754C29.3459 32.1279 29.6124 31.4623 29.4375 30.6615C29.1344 29.2728 27.4557 28.701 26.3218 29.5876C26.1091 29.7539 25.9229 29.9562 25.7017 30.109C25.3049 30.3831 24.9052 30.3562 24.5834 29.9905C24.2797 29.6456 24.3157 29.2782 24.5944 28.9139C25.8647 27.2536 28.3565 26.9959 29.928 28.3679C31.5109 29.7497 31.6178 32.1514 30.1199 33.6439C29.2806 34.4802 28.3725 35.2476 27.4967 36.0474C27.4249 36.1132 27.3628 36.1898 27.1937 36.3711Z" fill="#939393"/>
</svg>
