<svg width="54" height="67" viewBox="0 0 54 67" fill="none" xmlns="http://www.w3.org/2000/svg">
<path d="M34.0463 48.3588C32.7348 47.8324 31.4766 47.3136 30.2044 46.8322C30.0166 46.7611 29.7513 46.8314 29.5402 46.8964C28.7453 47.1407 27.9616 47.4202 27.1672 47.6663C26.3511 47.9191 25.8115 47.6265 25.5912 46.7992C25.2999 45.7055 25.0625 44.5966 24.7435 43.5114C24.6506 43.1955 24.4173 42.8442 24.1453 42.6706C22.8632 41.8523 21.5453 41.09 20.1794 40.2715C19.3537 41.1108 18.5488 41.939 17.7329 42.7559C16.9946 43.4951 16.5558 43.5216 15.7522 42.8803C14.0523 41.5242 12.3629 40.1548 10.6552 38.8085C10.2162 38.4625 10.0195 38.0577 10.0282 37.4995C10.049 36.1807 10.028 34.8615 10.0373 33.5424C10.0436 32.6346 10.4465 32.2284 11.3525 32.2241C13.1805 32.2154 15.0088 32.2306 16.8369 32.2106C17.087 32.2078 17.4077 32.1326 17.5744 31.968C20.0753 29.4963 22.5561 27.0039 25.0859 24.4719C24.2249 23.6612 23.3756 22.8614 22.4974 22.0344C23.1523 21.4082 23.6613 20.9215 24.161 20.4437C25.2766 21.5314 26.4427 22.6181 27.5448 23.766C28.028 24.2693 27.8853 24.8277 27.2513 25.463C24.7665 27.9527 22.2215 30.3855 19.8172 32.9507C18.7603 34.0783 17.6762 34.6215 16.129 34.468C14.8742 34.3436 13.5972 34.4429 12.2581 34.4429C12.2581 35.3285 12.2453 36.1548 12.2694 36.9803C12.2738 37.1349 12.3901 37.3287 12.5151 37.4306C13.8588 38.5254 15.2145 39.6053 16.6334 40.7425C17.4431 39.923 18.2313 39.1172 19.0284 38.3204C19.6915 37.6579 20.0616 37.6102 20.8654 38.0899C22.5329 39.0851 24.214 40.0602 25.8467 41.11C26.2294 41.3561 26.5575 41.8262 26.7092 42.263C27.0323 43.1936 27.223 44.1703 27.4911 45.218C28.1721 44.9939 28.7903 44.7429 29.4325 44.5971C29.8141 44.5105 30.2738 44.4805 30.6286 44.6127C32.338 45.25 34.027 45.9429 35.7164 46.6328C36.7235 47.044 36.9177 47.5682 36.437 48.5375C35.4203 50.5872 34.4034 52.6371 33.3608 54.6738C33.1992 54.9897 32.9405 55.2858 32.6596 55.5056C31.6035 56.3325 30.5325 57.1422 29.4393 57.9193C29.0338 58.2076 28.8748 58.5218 28.9087 59.014C28.9516 59.6357 28.9257 60.263 28.9172 60.8876C28.905 61.7976 28.5082 62.202 27.6051 62.2111C26.2402 62.2248 24.8752 62.2246 23.5102 62.232C23.4907 62.2322 23.4715 62.2515 23.4085 62.285C23.4085 62.8743 23.4085 63.4887 23.4085 64.2071C24.041 64.2717 24.695 64.363 25.3519 64.4021C35.2183 64.9879 44.6338 59.3567 48.8208 50.3946C49.0308 49.9451 49.0295 49.6147 48.7753 49.1893C47.9233 47.7628 47.1144 46.3106 46.303 44.893C46.2088 44.8823 46.1495 44.8562 46.1238 44.8754C44.9565 45.7425 43.8502 45.5405 42.68 44.8091C41.7631 44.2361 40.7579 43.7989 39.7741 43.3397C39.1459 43.0464 38.9043 42.5984 38.9081 41.914C38.9267 38.6511 38.9293 35.3881 38.8989 32.1254C38.8954 31.7505 38.7345 31.3144 38.5051 31.015C37.366 29.5274 36.1993 28.0597 34.9998 26.6205C34.5166 26.0405 34.3607 25.4828 34.6625 24.7785C34.8519 24.3367 34.9687 23.8638 35.1294 23.3698C34.9185 23.3557 34.7599 23.3437 34.6008 23.335C33.7735 23.29 33.3726 22.8989 33.3662 22.0733C33.3538 20.4767 33.3149 18.8779 33.3841 17.284C33.4145 16.5845 33.1568 16.3282 32.5352 16.2593C30.4721 16.0307 28.41 15.794 26.3468 15.5667C26.1426 15.5441 25.9337 15.5637 25.6473 15.5637C25.6473 14.8327 25.6473 14.133 25.6473 13.2422C27.3824 13.3811 29.1447 13.3925 30.8606 13.6805C41.9066 15.5335 50.2138 23.3811 52.7227 34.2482C56.0242 48.5492 46.5539 63.2158 32.1617 66.0911C17.6969 68.9809 3.95798 60.1686 0.691779 45.7884C-0.978907 38.4334 0.409412 31.559 4.50012 25.2277C4.82248 24.7289 5.21391 24.3534 5.86604 24.5378C6.53742 24.7276 6.70832 25.2369 6.70721 25.8794C6.6987 30.2299 6.69333 34.5806 6.72092 38.9309C6.72314 39.2723 6.89811 39.696 7.13715 39.9398C9.35628 42.2038 11.5995 44.4444 13.8551 46.6722C14.2998 47.1116 14.5024 47.5784 14.4894 48.2066C14.4642 49.4309 14.2271 50.7479 14.594 51.8554C14.9531 52.9385 15.8983 53.8586 16.6899 54.759C17.5701 55.7602 17.9349 56.8372 17.833 58.1724C17.7312 59.5068 17.831 60.8555 17.7993 62.197C17.7888 62.6481 17.9343 62.8558 18.3633 62.9756C19.2689 63.2285 20.1614 63.5285 21.1431 63.8353C21.1431 63.0917 21.1431 62.4698 21.1431 61.8476C21.1431 60.2256 21.3729 59.9933 22.9675 59.9914C24.1475 59.9899 25.3275 59.9847 26.5075 59.9783C26.5479 59.9781 26.5883 59.9457 26.6971 59.8988C26.6971 59.3328 26.723 58.736 26.6901 58.1426C26.6545 57.5032 26.8852 57.0485 27.4091 56.6715C28.5917 55.8205 29.7546 54.9412 30.9041 54.0458C31.1835 53.828 31.4414 53.5353 31.6035 53.2222C32.4291 51.6265 33.2199 50.013 34.0463 48.3588ZM35.6323 17.324C35.6323 18.6088 35.6323 19.8453 35.6323 21.1135C35.9565 21.1135 36.2324 21.1079 36.5079 21.1144C37.5178 21.1386 37.9851 21.7649 37.6898 22.7186C37.4711 23.4242 37.2462 24.1291 36.9851 24.8196C36.8457 25.1879 36.9034 25.4499 37.1514 25.7532C38.3369 27.203 39.5227 28.654 40.6535 30.1464C40.923 30.5023 41.1093 31.0158 41.1167 31.4603C41.1597 34.0501 41.1338 36.6409 41.1402 39.2312C41.1421 39.9902 40.9186 40.9077 41.2637 41.4635C41.6094 42.0203 42.5708 42.1647 43.201 42.5822C44.0646 43.1542 44.8195 43.1488 45.7229 42.6032C46.8711 41.9099 47.2607 42.0858 47.9328 43.2596C48.6294 44.4762 49.3259 45.6931 50.0549 46.9668C53.8068 35.3712 47.4908 21.6712 35.6323 17.324ZM4.48087 30.1601C1.67349 36.4244 1.50833 42.7554 4.04167 49.1043C6.28302 54.7211 10.153 58.8893 15.5885 61.768C15.5885 60.1914 15.6009 58.7588 15.5758 57.3268C15.5717 57.0992 15.4376 56.8456 15.2967 56.6532C14.4226 55.4598 13.5085 54.2952 12.6567 53.0863C12.434 52.7702 12.2938 52.3358 12.2744 51.9479C12.2225 50.9099 12.2916 49.8656 12.237 48.828C12.2188 48.4821 12.0552 48.0659 11.8156 47.8215C9.58162 45.5427 7.32249 43.2884 5.05504 41.043C4.64714 40.6392 4.46735 40.2052 4.47235 39.6297C4.49309 37.248 4.48105 34.8659 4.48105 32.4841C4.48087 31.7092 4.48087 30.9347 4.48087 30.1601Z" fill="#939393"/>
<path d="M3.26562 10.0639C3.34913 4.81932 7.39152 0.430321 12.5974 0.0296376C17.8415 -0.374008 22.5243 3.39027 23.2546 8.58045C23.6105 11.1103 23.038 13.5072 22.1846 15.8442C20.3589 20.8448 17.5215 25.2731 14.3113 29.4784C13.7832 30.1701 12.9946 30.2098 12.4849 29.5376C8.79391 24.6726 5.48605 19.5905 3.87924 13.6047C3.56984 12.4527 3.46486 11.2456 3.26562 10.0639ZM13.339 27.0347C13.4919 26.8471 13.5864 26.751 13.6578 26.6403C14.9469 24.6413 16.3121 22.686 17.5012 20.6291C19.2178 17.6599 20.6355 14.5553 21.0883 11.096C21.5382 7.65817 19.699 4.34457 16.5185 2.90737C13.4175 1.50591 9.75821 2.3145 7.50095 4.92857C5.48994 7.25749 5.2296 9.95581 5.95617 12.818C7.29523 18.0948 10.21 22.5571 13.339 27.0347Z" fill="#939393"/>
<path d="M7.8125 10.0127C7.80954 6.94519 10.3038 4.45073 13.3734 4.45166C16.4092 4.45259 18.9081 6.93445 18.9179 9.95883C18.9281 13.0626 16.4216 15.5699 13.3202 15.5582C10.2951 15.5466 7.81547 13.0501 7.8125 10.0127ZM16.6929 9.99272C16.6877 8.17965 15.2011 6.68856 13.3874 6.67727C11.5449 6.66579 10.0381 8.16816 10.0364 10.0181C10.0348 11.8234 11.5362 13.3298 13.3415 13.3343C15.1896 13.3387 16.6981 11.8347 16.6929 9.99272Z" fill="#939393"/>
</svg>
